<svg xmlns="http://www.w3.org/2000/svg" xmlns:xlink="http://www.w3.org/1999/xlink" preserveAspectRatio="xMidYMid" width="97.969" height="79" viewBox="0 0 97.969 79">
  <defs>
    <style>
      .cls-1 {
        fill: #fff;
        fill-rule: evenodd;
      }
    </style>
  </defs>
  <path d="M97.344,65.935 L96.011,65.935 C95.795,65.935 95.651,65.827 95.651,65.575 C95.542,63.667 94.462,62.264 92.372,62.264 C90.426,62.264 89.129,63.452 89.129,65.143 C89.129,69.318 97.956,67.951 97.956,74.141 C97.956,76.769 95.867,79.000 92.660,79.000 C89.201,79.000 87.039,76.769 86.895,73.350 C86.895,73.134 87.039,72.990 87.255,72.990 L88.589,72.990 C88.805,72.990 88.949,73.098 88.949,73.350 C89.057,75.797 90.282,77.021 92.660,77.021 C94.822,77.021 95.903,75.833 95.903,74.141 C95.903,69.786 87.075,71.154 87.075,65.143 C87.075,62.516 89.129,60.284 92.264,60.284 C95.795,60.284 97.560,62.372 97.704,65.575 C97.704,65.791 97.560,65.935 97.344,65.935 ZM83.724,62.516 L82.139,62.516 C80.013,62.516 78.536,63.847 78.536,66.079 L78.536,78.281 C78.536,78.497 78.392,78.640 78.176,78.640 L76.842,78.640 C76.626,78.640 76.482,78.497 76.482,78.281 L76.482,66.079 C76.482,62.768 78.896,60.536 82.139,60.536 L83.724,60.536 C83.940,60.536 84.085,60.680 84.085,60.896 L84.085,62.156 C84.085,62.372 83.940,62.516 83.724,62.516 ZM73.211,12.330 C71.154,11.572 70.098,9.312 70.856,7.293 C71.615,5.274 73.905,4.248 75.962,5.006 C78.019,5.764 79.076,8.024 78.317,10.044 C77.559,12.063 75.268,13.089 73.211,12.330 ZM75.162,7.138 C74.302,6.821 73.345,7.250 73.028,8.093 C72.711,8.937 73.152,9.881 74.012,10.198 C74.871,10.515 75.829,10.087 76.146,9.243 C76.463,8.399 76.021,7.455 75.162,7.138 ZM71.978,73.350 C71.978,76.589 69.780,79.000 66.429,79.000 C63.078,79.000 60.880,76.589 60.880,73.350 L60.880,65.935 C60.880,62.696 63.078,60.284 66.429,60.284 C69.780,60.284 71.978,62.696 71.978,65.935 L71.978,73.350 ZM69.888,65.935 C69.888,63.739 68.591,62.228 66.429,62.228 C64.267,62.228 62.970,63.739 62.970,65.935 L62.970,73.350 C62.970,75.545 64.267,77.057 66.429,77.057 C68.591,77.057 69.888,75.545 69.888,73.350 L69.888,65.935 ZM42.882,36.002 C33.102,32.396 28.080,21.652 31.687,12.052 C35.294,2.452 46.184,-2.425 55.963,1.180 C65.742,4.786 70.764,15.530 67.157,25.130 C63.551,34.730 52.661,39.607 42.882,36.002 ZM55.162,3.312 C50.077,1.437 44.649,2.176 40.412,4.843 L50.762,8.659 L49.961,10.791 L38.244,6.471 C37.699,6.955 37.185,7.478 36.706,8.037 L51.358,13.439 L50.557,15.571 L35.299,9.945 C34.732,10.848 34.247,11.819 33.859,12.853 C30.694,21.277 35.101,30.706 43.682,33.870 C48.044,35.478 52.658,35.162 56.556,33.357 L40.603,27.475 L41.404,25.343 L59.117,31.875 L59.112,31.888 C61.014,30.556 62.642,28.816 63.844,26.740 L56.884,24.174 L57.685,22.042 L64.848,24.683 C64.895,24.566 64.941,24.448 64.986,24.329 C68.151,15.905 63.744,6.476 55.162,3.312 ZM22.190,34.655 C19.286,33.584 17.794,30.393 18.866,27.542 C19.937,24.691 23.171,23.242 26.076,24.313 C28.980,25.384 30.472,28.575 29.401,31.426 C28.329,34.278 25.095,35.726 22.190,34.655 ZM25.275,26.445 C23.568,25.816 21.667,26.667 21.037,28.343 C20.408,30.018 21.284,31.894 22.991,32.523 C24.698,33.153 26.599,32.301 27.229,30.626 C27.859,28.950 26.982,27.074 25.275,26.445 ZM16.668,58.305 C15.840,58.305 15.263,57.693 15.263,56.901 C15.263,56.073 15.840,55.497 16.668,55.497 C17.461,55.497 18.074,56.073 18.074,56.901 C18.074,57.657 17.461,58.305 16.668,58.305 ZM11.047,74.141 C11.047,76.769 8.957,79.000 5.751,79.000 C2.292,79.000 0.130,76.769 -0.014,73.350 C-0.014,73.134 0.130,72.990 0.346,72.990 L1.679,72.990 C1.895,72.990 2.040,73.098 2.040,73.350 C2.148,75.797 3.373,77.021 5.751,77.021 C7.913,77.021 8.993,75.833 8.993,74.141 C8.993,69.786 0.166,71.154 0.166,65.143 C0.166,62.516 2.220,60.284 5.354,60.284 C8.885,60.284 10.651,62.372 10.795,65.575 C10.795,65.791 10.651,65.935 10.435,65.935 L9.101,65.935 C8.885,65.935 8.741,65.827 8.741,65.575 C8.633,63.667 7.552,62.264 5.462,62.264 C3.517,62.264 2.220,63.452 2.220,65.143 C2.220,69.318 11.047,67.951 11.047,74.141 ZM16.020,60.644 L17.353,60.644 C17.569,60.644 17.713,60.788 17.713,61.004 L17.713,78.281 C17.713,78.497 17.569,78.640 17.353,78.640 L16.020,78.640 C15.804,78.640 15.659,78.497 15.659,78.281 L15.659,61.004 C15.659,60.788 15.804,60.644 16.020,60.644 ZM27.910,60.284 C29.784,60.284 31.261,61.400 32.054,62.984 C32.811,61.400 34.288,60.284 36.162,60.284 C39.296,60.284 41.314,62.696 41.314,65.935 L41.314,78.281 C41.314,78.497 41.170,78.640 40.954,78.640 L39.621,78.640 C39.404,78.640 39.260,78.497 39.260,78.281 L39.260,65.935 C39.260,63.775 38.143,62.264 36.162,62.264 C34.180,62.264 33.063,63.775 33.063,65.935 L33.063,78.281 C33.063,78.497 32.919,78.640 32.703,78.640 L31.369,78.640 C31.153,78.640 31.009,78.497 31.009,78.281 L31.009,65.935 C31.009,63.775 29.892,62.264 27.910,62.264 C25.929,62.264 24.812,63.775 24.812,65.935 L24.812,78.281 C24.812,78.497 24.668,78.640 24.452,78.640 L23.118,78.640 C22.902,78.640 22.758,78.497 22.758,78.281 L22.758,65.935 C22.758,62.696 24.776,60.284 27.910,60.284 ZM46.828,53.446 L48.161,53.446 C48.377,53.446 48.521,53.589 48.521,53.805 L48.521,68.311 L50.971,68.311 L55.007,60.896 C55.115,60.716 55.259,60.644 55.439,60.644 L56.952,60.644 C57.205,60.644 57.385,60.824 57.240,61.076 L53.097,68.562 C55.403,69.210 56.988,71.154 56.988,73.709 L56.988,78.281 C56.988,78.497 56.844,78.640 56.628,78.640 L55.295,78.640 C55.079,78.640 54.935,78.497 54.935,78.281 L54.935,73.709 C54.935,71.622 53.457,70.290 51.332,70.290 L48.521,70.290 L48.521,78.281 C48.521,78.497 48.377,78.640 48.161,78.640 L46.828,78.640 C46.611,78.640 46.467,78.497 46.467,78.281 L46.467,53.805 C46.467,53.589 46.611,53.446 46.828,53.446 Z" class="cls-1"/>
</svg>
