<?xml version="1.0" encoding="utf-8"?>
<!-- Generator: Adobe Illustrator 15.0.0, SVG Export Plug-In  -->
<!DOCTYPE svg PUBLIC "-//W3C//DTD SVG 1.1//EN" "http://www.w3.org/Graphics/SVG/1.1/DTD/svg11.dtd" [
	<!ENTITY ns_flows "http://ns.adobe.com/Flows/1.0/">
]>
<svg version="1.1"
	 xmlns="http://www.w3.org/2000/svg" xmlns:xlink="http://www.w3.org/1999/xlink" xmlns:a="http://ns.adobe.com/AdobeSVGViewerExtensions/3.0/"
	 x="0px" y="0px" width="48px" height="48px" viewBox="0 -4 48 48" enable-background="new 0 -4 48 48" xml:space="preserve">
<defs>
</defs>
<path fill="#FFFFFF" d="M44,38H4c-2.206,0-4-1.874-4-4.177V4.177C0,1.874,1.794,0,4,0h40c2.206,0,4,1.874,4,4.177v29.646
	C48,36.126,46.206,38,44,38z M4,2C2.897,2,2,2.977,2,4.177v29.646C2,35.023,2.897,36,4,36h40c1.104,0,2-0.977,2-2.177V4.177
	C46,2.977,45.104,2,44,2H4z"/>
<path fill="#FFFFFF" d="M38,42H10c-0.552,0-1-0.448-1-1s0.448-1,1-1h28c0.552,0,1,0.448,1,1S38.552,42,38,42z"/>
<path fill="#FFFFFF" d="M24,42c-0.552,0-1-0.448-1-1v-4c0-0.552,0.448-1,1-1s1,0.448,1,1v4C25,41.552,24.552,42,24,42z"/>
<circle fill="#FFFFFF" cx="24" cy="33" r="2"/>
<rect x="1" y="28" fill="#FFFFFF" width="46" height="2"/>
</svg>
