<?xml version="1.0" encoding="UTF-8" ?>
<!DOCTYPE svg PUBLIC "-//W3C//DTD SVG 1.1//EN" "http://www.w3.org/Graphics/SVG/1.1/DTD/svg11.dtd">
<svg width="128pt" height="128pt" viewBox="0 0 128 128" version="1.1" xmlns="http://www.w3.org/2000/svg">
<g id="#ffffffff">
<path fill="#ffffff" opacity="1.00" d=" M 10.34 9.34 C 12.22 7.82 14.29 4.00 17.08 5.89 C 22.42 10.89 27.55 16.16 32.65 21.41 C 34.45 23.45 32.01 25.42 30.71 26.87 C 39.92 36.09 49.15 45.29 58.36 54.51 C 64.24 48.70 70.04 42.82 75.89 36.99 C 73.53 29.72 74.67 21.41 79.26 15.26 C 84.84 7.28 95.54 3.55 104.89 6.19 C 107.11 6.65 110.74 7.91 109.37 10.87 C 106.34 14.58 102.39 17.49 99.50 21.28 C 99.34 23.69 99.46 26.12 99.45 28.53 C 102.00 28.54 104.55 28.54 107.11 28.50 C 110.40 25.18 113.58 21.74 117.08 18.64 C 120.09 17.26 121.35 20.96 121.81 23.20 C 125.11 34.54 118.50 47.46 107.51 51.62 C 102.29 53.83 96.36 53.70 90.98 52.16 C 85.04 57.91 79.24 63.79 73.42 69.65 C 78.11 74.23 82.73 78.88 87.34 83.55 C 90.59 80.34 93.94 77.23 97.25 74.09 C 99.07 72.35 102.23 74.71 101.35 77.00 C 100.15 78.83 98.42 80.22 96.90 81.76 C 104.40 89.38 112.06 96.85 119.56 104.47 C 124.02 108.78 123.49 116.76 118.51 120.43 C 114.43 123.65 108.11 123.26 104.48 119.55 C 96.87 112.07 89.42 104.42 81.86 96.89 C 80.31 98.42 78.88 100.10 77.08 101.35 C 74.70 102.29 72.32 99.07 74.11 97.20 C 77.20 93.85 80.36 90.57 83.57 87.33 C 79.02 82.61 74.27 78.07 69.67 73.39 C 63.84 79.31 57.91 85.11 52.09 91.03 C 54.58 98.67 53.11 107.50 47.94 113.71 C 41.45 122.14 29.01 125.12 19.43 120.48 C 18.12 119.57 17.91 117.51 19.15 116.46 C 22.17 113.23 25.41 110.20 28.53 107.06 C 28.54 104.51 28.54 101.96 28.54 99.41 C 26.11 99.42 23.68 99.29 21.25 99.45 C 17.48 102.44 14.51 106.34 10.84 109.46 C 8.94 110.27 7.12 108.78 6.83 106.91 C 2.83 96.67 7.14 84.16 16.46 78.42 C 22.48 74.52 30.23 73.70 37.03 75.91 C 42.83 70.00 48.73 64.18 54.56 58.30 C 45.33 49.08 36.12 39.85 26.88 30.64 C 25.47 31.98 23.41 34.53 21.41 32.60 C 16.11 27.40 10.77 22.23 5.69 16.83 C 4.42 13.49 8.67 11.65 10.34 9.34 M 88.59 13.63 C 81.99 17.79 78.44 26.40 80.65 33.96 C 80.98 35.79 82.58 38.10 80.76 39.65 C 67.10 53.38 53.36 67.05 39.64 80.72 C 38.45 82.28 36.54 81.44 35.04 80.96 C 27.94 78.50 19.52 81.00 14.87 86.90 C 11.38 91.04 10.09 96.69 10.89 101.99 C 13.72 99.51 15.98 96.30 19.14 94.24 C 23.08 93.88 27.07 94.06 31.03 94.13 C 32.54 94.07 33.97 95.34 33.83 96.90 C 33.89 100.89 34.03 104.91 33.74 108.90 C 31.60 111.98 28.51 114.27 26.03 117.07 C 31.30 117.81 36.97 116.66 41.08 113.14 C 46.76 108.62 49.38 100.55 47.20 93.59 C 46.81 91.88 45.48 89.73 47.26 88.35 C 60.93 74.60 74.57 60.82 88.37 47.22 C 89.58 45.71 91.46 46.59 92.95 47.05 C 99.34 49.27 106.89 47.46 111.67 42.70 C 116.14 38.48 118.02 32.03 117.08 26.02 C 114.25 28.49 111.99 31.64 108.88 33.76 C 104.90 33.99 100.90 33.87 96.91 33.84 C 95.35 34.03 94.00 32.57 94.15 31.05 C 94.10 27.09 93.97 23.10 94.24 19.14 C 96.30 16.00 99.48 13.74 101.96 10.92 C 97.36 10.31 92.50 11.01 88.59 13.63 M 11.76 15.56 C 15.57 19.28 19.29 23.08 23.08 26.82 C 24.33 25.57 25.59 24.34 26.85 23.11 C 23.14 19.27 19.26 15.59 15.58 11.73 C 14.30 13.01 13.03 14.28 11.76 15.56 M 85.69 93.28 C 93.34 100.67 100.69 108.38 108.32 115.81 C 110.10 117.61 113.18 117.75 115.20 116.25 C 117.73 114.47 118.05 110.44 115.80 108.31 C 108.38 100.67 100.73 93.27 93.25 85.69 C 90.72 88.21 88.20 90.74 85.69 93.28 Z" />
</g>
</svg>
