<?xml version="1.0" encoding="utf-8"?>
<!-- Generator: Adobe Illustrator 15.0.0, SVG Export Plug-In  -->
<!DOCTYPE svg PUBLIC "-//W3C//DTD SVG 1.1//EN" "http://www.w3.org/Graphics/SVG/1.1/DTD/svg11.dtd" [
	<!ENTITY ns_flows "http://ns.adobe.com/Flows/1.0/">
]>
<svg version="1.1"
	 xmlns="http://www.w3.org/2000/svg" xmlns:xlink="http://www.w3.org/1999/xlink" xmlns:a="http://ns.adobe.com/AdobeSVGViewerExtensions/3.0/"
	 x="0px" y="0px" width="48px" height="48px" viewBox="0 0 48 48" enable-background="new 0 0 48 48" xml:space="preserve">
<defs>
</defs>
<path fill="#FFFFFF" d="M26,48h-4c-1.654,0-3-1.346-3-3v-3.725c-1.28-0.369-2.512-0.881-3.681-1.526l-2.634,2.635
	c-1.134,1.134-3.109,1.132-4.243,0l-2.829-2.827c-0.567-0.566-0.879-1.32-0.879-2.121c0-0.802,0.312-1.556,0.879-2.121l2.635-2.637
	c-0.645-1.166-1.156-2.397-1.525-3.679H3c-1.654,0-3-1.347-3-3v-4c0-0.802,0.312-1.555,0.878-2.121
	c0.567-0.566,1.32-0.879,2.122-0.879h3.724c0.37-1.278,0.88-2.511,1.526-3.679l-2.634-2.635c-1.17-1.17-1.17-3.072,0-4.242
	l2.828-2.829c1.133-1.132,3.109-1.134,4.243,0l2.635,2.635c1.168-0.645,2.4-1.156,3.678-1.525V3c0-1.654,1.346-3,3-3h4
	c1.654,0,3,1.346,3,3v3.724c1.279,0.37,2.512,0.881,3.678,1.525l2.635-2.635c1.135-1.132,3.109-1.134,4.244,0l2.828,2.828
	c0.567,0.566,0.879,1.32,0.879,2.121c0,0.801-0.312,1.555-0.879,2.121l-2.634,2.635c0.646,1.168,1.157,2.4,1.526,3.68H45
	c1.654,0,3,1.346,3,3v4c0,0.802-0.313,1.556-0.878,2.121s-1.32,0.879-2.122,0.879h-3.725c-0.369,1.28-0.881,2.513-1.525,3.681
	l2.634,2.635c1.171,1.17,1.171,3.071,0,4.242l-2.827,2.828c-1.135,1.133-3.109,1.133-4.244,0L32.68,39.75
	c-1.168,0.646-2.4,1.156-3.679,1.525V45C29,46.654,27.654,48,26,48z M15.157,37.498c0.179,0,0.36,0.048,0.521,0.146
	c1.416,0.865,2.949,1.502,4.557,1.891C20.684,39.645,21,40.045,21,40.507V45c0,0.552,0.449,1,1,1h4c0.551,0,1-0.448,1-1v-4.493
	c0-0.462,0.316-0.862,0.766-0.972c1.605-0.389,3.139-1.023,4.555-1.891c0.396-0.24,0.902-0.18,1.229,0.146l3.179,3.179
	c0.375,0.374,1.039,0.376,1.414,0l2.828-2.829c0.391-0.39,0.391-1.023,0-1.414l-3.179-3.179c-0.327-0.325-0.388-0.835-0.146-1.229
	c0.865-1.413,1.5-2.946,1.889-4.555c0.107-0.449,0.51-0.767,0.972-0.767H45c0.268,0,0.52-0.104,0.708-0.293
	C45.896,26.518,46,26.268,46,25.999v-4c0-0.552-0.449-1-1-1h-4.493c-0.462,0-0.864-0.316-0.972-0.766
	c-0.389-1.607-1.023-3.14-1.889-4.556c-0.242-0.394-0.182-0.901,0.146-1.229l3.179-3.179c0.187-0.187,0.293-0.444,0.293-0.707
	s-0.106-0.521-0.293-0.707l-2.828-2.828c-0.379-0.377-1.037-0.377-1.416,0l-3.179,3.179c-0.325,0.328-0.833,0.389-1.229,0.146
	c-1.412-0.864-2.944-1.5-4.553-1.889C27.316,8.356,27,7.955,27,7.493V3c0-0.552-0.449-1-1-1h-4c-0.551,0-1,0.448-1,1v4.493
	c0,0.462-0.316,0.863-0.765,0.972c-1.606,0.388-3.139,1.023-4.556,1.889c-0.395,0.241-0.902,0.181-1.228-0.146l-3.179-3.179
	c-0.378-0.377-1.037-0.377-1.415,0L7.03,9.857c-0.39,0.39-0.39,1.024,0,1.414l3.179,3.179c0.327,0.326,0.387,0.835,0.146,1.229
	c-0.866,1.416-1.501,2.949-1.889,4.555C8.358,20.683,7.956,21,7.494,21H3c-0.267,0-0.519,0.104-0.708,0.293
	C2.104,21.48,2,21.731,2,21.999v4c0,0.552,0.449,1,1,1h4.493c0.462,0,0.864,0.315,0.972,0.767c0.389,1.607,1.024,3.141,1.889,4.555
	c0.241,0.394,0.181,0.9-0.146,1.229l-3.179,3.18c-0.186,0.188-0.293,0.444-0.293,0.707c0,0.264,0.107,0.521,0.293,0.707l2.829,2.828
	c0.377,0.377,1.037,0.377,1.415,0l3.178-3.179C14.643,37.598,14.898,37.498,15.157,37.498z"/>
<path fill="#FFFFFF" d="M24,34c-5.514,0-10-4.486-10-10c0-5.514,4.486-10,10-10c5.514,0,10,4.486,10,10C34,29.514,29.516,34,24,34z
	 M24,16c-4.411,0-8,3.589-8,8s3.589,8,8,8s8-3.589,8-8S28.412,16,24,16z"/>
</svg>
